<svg xmlns="http://www.w3.org/2000/svg" viewBox="0 0 750 500"><g id="freepik--Moon--inject-77"><path d="M266,151.1a27.3,27.3,0,0,1-22-43.44,27.31,27.31,0,1,0,38.15,38.15A27.17,27.17,0,0,1,266,151.1Z" style="fill:#263238"></path></g><g id="freepik--Stars--inject-77"><polygon points="172.24 103.22 173.28 103.75 172.27 104.34 171.74 105.39 171.15 104.38 170.1 103.84 171.11 103.25 171.64 102.2 172.24 103.22" style="fill:#455a64"></polygon><polygon points="194.23 155.64 196.75 156.96 194.28 158.37 192.96 160.9 191.54 158.42 189.01 157.1 191.49 155.69 192.81 153.16 194.23 155.64" style="fill:#455a64"></polygon><polygon points="314.26 106.27 316.78 107.59 314.31 109.01 312.99 111.53 311.57 109.06 309.04 107.74 311.52 106.32 312.84 103.8 314.26 106.27" style="fill:#455a64"></polygon></g><g id="freepik--Tent--inject-77"><path d="M61.12,377.16c.93-2.8,67-168.38,67-168.38s245.59-1.86,245.59,0,49.79,167.91,49.79,167.91Z" style="fill:#FFC100"></path><path d="M133.85,218c1,1.45,50.56,158.15,50.56,158.15H69.32Z" style="opacity:0.2"></path><path d="M308.75,376.84l-.63-.2L306.3,376l-7-2.44c-6-2.26-14.7-5.53-25.17-10.26a295.33,295.33,0,0,1-35.51-19.05,208.21,208.21,0,0,1-38.42-30.86,224.22,224.22,0,0,1-16.47-19.57c-5-6.58-9.48-13.17-13.61-19.54-8.26-12.73-15.12-24.55-21-34.4s-10.66-17.81-14.1-23.22c-1.68-2.73-3.07-4.8-4-6.23-.44-.7-.78-1.24-1-1.62s-.33-.56-.33-.56.13.17.38.53l1.07,1.59c.93,1.41,2.34,3.47,4.05,6.18,3.5,5.38,8.36,13.3,14.25,23.14s12.81,21.63,21.09,34.33c4.12,6.36,8.63,12.93,13.61,19.5a224.77,224.77,0,0,0,16.43,19.51,209.79,209.79,0,0,0,38.31,30.82A299.52,299.52,0,0,0,274.32,363c10.43,4.77,19.1,8.1,25.08,10.41l6.94,2.53,1.8.67Z" style="fill:#263238"></path><path d="M501.26,371.86s-.2,0-.56-.09l-1.64-.33c-1.43-.31-3.56-.69-6.26-1.35L488.29,369,483,367.56c-1.9-.55-3.91-1.22-6.05-1.89l-3.25-1.19c-1.11-.41-2.26-.81-3.39-1.33l-3.52-1.51c-1.17-.56-2.36-1.18-3.57-1.78s-2.43-1.29-3.65-2-2.48-1.42-3.67-2.27S453.4,354,452.21,353l-3.63-2.85c-1.17-1-2.35-2.09-3.54-3.17s-2.29-2.28-3.46-3.44a130.82,130.82,0,0,1-12.86-16.15c-4-6-7.82-12.31-11.67-18.85a450.53,450.53,0,0,1-33-70.31c-6.9-18.67-10.35-30.49-10.35-30.49s.08.17.21.53.3.89.54,1.57l2,6.08c1.82,5.25,4.38,12.88,7.91,22.18A463.16,463.16,0,0,0,417.5,308.3c3.85,6.53,7.68,12.87,11.64,18.82a129.3,129.3,0,0,0,12.79,16.1c1.16,1.16,2.25,2.37,3.43,3.44l3.51,3.16c1.22,1,2.42,1.91,3.61,2.84s2.45,1.71,3.64,2.56,2.43,1.55,3.64,2.27,2.4,1.43,3.62,2,2.39,1.23,3.56,1.79l3.49,1.52c1.13.52,2.27.93,3.38,1.34l3.23,1.21c2.13.67,4.13,1.35,6,1.92l5.3,1.49,4.49,1.12c2.69.69,4.81,1.1,6.23,1.45l1.63.37Z" style="fill:#263238"></path><polygon points="133.43 376.13 129.72 271.32 123.35 376.13 133.43 376.13" style="opacity:0.6000000000000001"></polygon><path d="M129.72,208.27s0,.16-.13.46-.25.78-.43,1.36c-.4,1.21-1,3-1.71,5.19-1.5,4.51-3.75,11-6.67,19C115,250.2,106.29,272,96.31,295.89A361.55,361.55,0,0,1,81,329a188.25,188.25,0,0,1-16,25.16,128.21,128.21,0,0,1-13.35,15l-1.2,1.18-1.1,1-1.74,1.53-1.07.93-.37.31s.11-.13.34-.35l1-1c.47-.43,1-.95,1.7-1.57l1.09-1,1.18-1.19A134.29,134.29,0,0,0,64.65,354,192.24,192.24,0,0,0,80.53,328.8c5.28-9.9,10.37-21.14,15.3-33.11,10-23.9,18.71-45.66,24.6-61.57,3-8,5.27-14.42,6.83-18.9l1.8-5.16c.2-.57.36-1,.48-1.34S129.72,208.27,129.72,208.27Z" style="fill:#263238"></path></g><g id="freepik--Fire--inject-77"><polygon points="450.02 417.71 447.79 409.13 518.13 390.87 521.44 396.74 450.02 417.71" style="fill:#455a64"></polygon><path d="M520.68,396.5a3.37,3.37,0,0,1-.74.19l-2.13.44L510,398.69c-6.62,1.33-15.77,3.16-25.69,5.9-5,1.37-9.62,2.88-13.81,4.4s-7.94,3-11.13,4.09-5.83,1.88-7.67,2.33c-.91.22-1.63.38-2.12.47a6.83,6.83,0,0,1-.75.12,3.83,3.83,0,0,1,.73-.23l2.09-.56c1.82-.5,4.42-1.32,7.59-2.47s6.9-2.64,11.09-4.2,8.87-3.08,13.84-4.46c9.95-2.74,19.12-4.52,25.76-5.75,3.32-.62,6-1.08,7.88-1.39l2.14-.35A6.57,6.57,0,0,1,520.68,396.5Z" style="fill:#263238"></path><path d="M465.52,404.51a4.87,4.87,0,0,1,1.23,0c.79,0,1.93.09,3.33.18l.74.05-.67.32c-2.2,1-5.17,2.4-8.44,3.88-3.49,1.57-6.66,3-9,4-1.15.49-2.09.88-2.74,1.14a4.89,4.89,0,0,1-1,.36,3.57,3.57,0,0,1,.95-.54c.62-.32,1.54-.76,2.67-1.3,2.26-1.07,5.41-2.52,8.89-4.1,3.27-1.47,6.27-2.79,8.5-3.75l.06.36c-1.4-.13-2.54-.25-3.32-.35A5.26,5.26,0,0,1,465.52,404.51Z" style="fill:#263238"></path><path d="M519.6,393s-.1.14-.33.35a7.3,7.3,0,0,1-1.11.81,12.48,12.48,0,0,1-4.78,1.57c-2.12.32-4.66.21-7.43.37a33.86,33.86,0,0,0-8.78,2c-3.05,1-6,2.06-8.71,2.69a56.15,56.15,0,0,1-7.35,1.26,49.64,49.64,0,0,1-5,.29c-.59,0-1.05,0-1.37,0a1.34,1.34,0,0,1-.47-.05,16.06,16.06,0,0,1,1.83-.13c1.18-.07,2.89-.18,5-.45a62.68,62.68,0,0,0,7.27-1.37c2.71-.65,5.6-1.67,8.66-2.71a33.63,33.63,0,0,1,8.92-2c2.82-.14,5.33,0,7.41-.26a13,13,0,0,0,4.73-1.37C519.09,393.38,519.57,392.91,519.6,393Z" style="fill:#263238"></path><polygon points="446.39 403.05 447.24 394.23 519.58 401.16 520.68 407.81 446.39 403.05" style="fill:#263238"></polygon><path d="M520,407.33a5.4,5.4,0,0,1-.76-.08l-2.15-.31-7.9-1.23c-6.67-1-15.89-2.43-26.15-3.25-5.13-.41-10-.59-14.49-.6s-8.48.1-11.86,0-6.12-.24-8-.45c-.94-.1-1.67-.2-2.16-.28a4,4,0,0,1-.75-.15,4.33,4.33,0,0,1,.76,0l2.16.19c1.88.15,4.61.27,8,.28s7.39-.12,11.86-.15,9.39.15,14.53.56c10.28.83,19.51,2.3,26.17,3.41,3.33.56,6,1,7.87,1.39l2.14.41A3.88,3.88,0,0,1,520,407.33Z" style="fill:#455a64"></path><path d="M465.47,396a5.26,5.26,0,0,1,1.16.41c.73.3,1.78.75,3.07,1.32l.68.3-.75.07c-2.42.22-5.67.49-9.25.75-3.82.29-7.27.52-9.77.65-1.26.07-2.27.12-3,.14a4.2,4.2,0,0,1-1.09,0,4.52,4.52,0,0,1,1.07-.18c.7-.08,1.71-.19,3-.3,2.49-.24,5.94-.52,9.76-.81,3.58-.26,6.84-.48,9.26-.62l-.06.37c-1.27-.61-2.3-1.11-3-1.47A6,6,0,0,1,465.47,396Z" style="fill:#455a64"></path><path d="M520.24,403.62s-.14.09-.42.22a8.71,8.71,0,0,1-1.32.38,12.51,12.51,0,0,1-5-.17c-2.1-.43-4.45-1.4-7.11-2.2a34.43,34.43,0,0,0-8.93-1.15c-3.22-.07-6.32-.11-9.1-.46a56.34,56.34,0,0,1-7.34-1.32c-2.06-.52-3.69-1.05-4.81-1.45-.55-.2-1-.37-1.27-.49s-.44-.19-.43-.21a15.81,15.81,0,0,1,1.77.51c1.13.33,2.77.81,4.83,1.28a63.69,63.69,0,0,0,7.3,1.21c2.77.31,5.83.34,9.06.41a34,34,0,0,1,9.06,1.21c2.69.84,5,1.84,7,2.3a13.11,13.11,0,0,0,4.91.33C519.62,403.85,520.23,403.57,520.24,403.62Z" style="fill:#455a64"></path><polygon points="472.69 368.45 467.4 361.4 467.4 340.5 472.69 347.05 472.69 354.48 476.97 344.28 474.7 335.97 474.7 319.35 478.48 332.45 481 329.68 483.25 343.9 483.25 364.93 472.69 368.45" style="fill:#FFC100"></polygon><polygon points="472.69 368.45 467.4 361.4 467.4 340.5 472.69 347.05 472.69 354.48 476.97 344.28 474.7 335.97 474.7 319.35 478.48 332.45 481 329.68 483.25 343.9 483.25 364.93 472.69 368.45" style="opacity:0.2"></polygon><polygon points="465.1 367.95 470.67 392.37 484.02 399.67 490.56 399.67 501.39 387.59 501.39 367.95 492.83 358.88 491.07 343.78 488.05 352.09 484.77 337.23 477.72 356.11 473.19 362.91 465.1 367.95" style="fill:#FFC100"></polygon><polygon points="494.02 309.9 488.8 316.36 490.85 322.24 495.12 316.95 494.02 309.9" style="fill:#FFC100"></polygon><g style="opacity:0.2"><path d="M486,397.35c-1.61-2.19-3.26-4.51-3.6-7.2a15.7,15.7,0,0,1,.82-6q1.29-4.65,2.77-9.25l4.41,8.33c1.16,2.19,2.36,4.57,2,7A11.73,11.73,0,0,1,490,395c-1,1.42-2.24,3-4,3" style="fill:#fff"></path></g><g style="opacity:0.2"><path d="M484.67,399.15l-7.26-7.45a5.82,5.82,0,0,1-1.55-7.67c2.87-8.39,5.82-16.95,11.19-24,.57,4,3.09,7.39,5.4,10.7s4.56,7,4.49,11c0,2.69-1.12,5.23-1.73,7.85a53.71,53.71,0,0,1-1.19,5.35,7,7,0,0,1-3.29,4.2c-2.27,1.11-5,.3-7.36-.53" style="fill:#fff"></path></g></g><g id="freepik--Tree--inject-77"><polygon points="515.54 126.72 490.42 177.38 497.92 177.67 476.64 217.93 487.82 217.93 470.38 253.7 567.85 253.7 546.39 217.93 556.67 217.48 536.11 177.24 543.71 176.79 515.54 126.72" style="fill:#455a64"></polygon><path d="M519.79,185.49c.14,0-.06,30.59-.44,68.32s-.82,68.31-1,68.31.06-30.58.44-68.32S519.64,185.49,519.79,185.49Z" style="fill:#263238"></path><path d="M531.73,198.52a87.07,87.07,0,0,1-5.59,7.67,89,89,0,0,1-6,7.37,84.61,84.61,0,0,1,5.59-7.68A85.8,85.8,0,0,1,531.73,198.52Z" style="fill:#263238"></path><path d="M519.55,212.48a45.62,45.62,0,0,1-5.53-4,43.63,43.63,0,0,1-5.2-4.39,45.11,45.11,0,0,1,5.52,4A43.29,43.29,0,0,1,519.55,212.48Z" style="fill:#263238"></path><path d="M518.88,237.33a11.11,11.11,0,0,1-1.85-1.44c-1.1-.93-2.62-2.22-4.33-3.61s-3.28-2.62-4.41-3.52a11.11,11.11,0,0,1-1.79-1.52,9.51,9.51,0,0,1,2,1.23c1.19.82,2.8,2,4.52,3.4s3.2,2.74,4.25,3.74A9.57,9.57,0,0,1,518.88,237.33Z" style="fill:#263238"></path><path d="M531.75,222a98.18,98.18,0,0,1-6.13,8c-3.5,4.35-6.42,7.81-6.53,7.72a97.6,97.6,0,0,1,6.12-8A98.49,98.49,0,0,1,531.75,222Z" style="fill:#263238"></path></g></svg>